<?xml version="1.0" encoding="UTF-8" standalone="no"?>
<!-- Created with Inkscape (http://www.inkscape.org/) -->

<svg
   xmlns:dc="http://purl.org/dc/elements/1.1/"
   xmlns:cc="http://creativecommons.org/ns#"
   xmlns:rdf="http://www.w3.org/1999/02/22-rdf-syntax-ns#"
   xmlns:svg="http://www.w3.org/2000/svg"
   xmlns="http://www.w3.org/2000/svg"
   xmlns:sodipodi="http://sodipodi.sourceforge.net/DTD/sodipodi-0.dtd"
   xmlns:inkscape="http://www.inkscape.org/namespaces/inkscape"
   width="744.09448819"
   height="1052.3622047"
   id="svg2"
   sodipodi:version="0.32"
   inkscape:version="0.48.2 r9819"
   sodipodi:docname="scores.svg"
   inkscape:output_extension="org.inkscape.output.svg.inkscape"
   version="1.1">
  <defs
     id="defs4">
    <inkscape:perspective
       sodipodi:type="inkscape:persp3d"
       inkscape:vp_x="0 : 526.18109 : 1"
       inkscape:vp_y="0 : 1000 : 0"
       inkscape:vp_z="744.09448 : 526.18109 : 1"
       inkscape:persp3d-origin="372.04724 : 350.78739 : 1"
       id="perspective10" />
  </defs>
  <sodipodi:namedview
     id="base"
     pagecolor="#ffffff"
     bordercolor="#666666"
     borderopacity="1.0"
     gridtolerance="10000"
     guidetolerance="10"
     objecttolerance="10"
     inkscape:pageopacity="0.0"
     inkscape:pageshadow="2"
     inkscape:zoom="0.65982878"
     inkscape:cx="415.18997"
     inkscape:cy="778.68935"
     inkscape:document-units="px"
     inkscape:current-layer="layer1"
     showgrid="false"
     inkscape:window-width="933"
     inkscape:window-height="670"
     inkscape:window-x="66"
     inkscape:window-y="152"
     inkscape:window-maximized="0" />
  <metadata
     id="metadata7">
    <rdf:RDF>
      <cc:Work
         rdf:about="">
        <dc:format>image/svg+xml</dc:format>
        <dc:type
           rdf:resource="http://purl.org/dc/dcmitype/StillImage" />
      </cc:Work>
    </rdf:RDF>
  </metadata>
  <g
     inkscape:label="Layer 1"
     inkscape:groupmode="layer"
     id="layer1">
    <rect
       style="color:#000000;fill:#1a1a1a;fill-opacity:1;fill-rule:nonzero;stroke:none;stroke-width:1px;marker:none;visibility:visible;display:inline;overflow:visible;enable-background:accumulate"
       id="rect3037"
       width="733.52362"
       height="342.51309"
       x="-59.106243"
       y="83.929138" />
    <g
       id="g3039">
      <path
         id="rect2986"
         d="M 0 220 L 0 246 L 321.65625 246 C 320.09375 245.24799 319.03906 244.2307 318.53125 242.90625 C 318.02344 241.57059 317.78125 239.54634 317.78125 236.875 L 317.78125 228.90625 C 317.78125 226.94205 317.84375 225.47652 318 224.5 C 318.15625 223.5123 318.63802 222.56543 319.40625 221.65625 C 319.9704 220.99976 320.69281 220.45167 321.5625 220 L 0 220 z M 333.46875 220 C 334.98492 220.79885 335.98509 221.7839 336.46875 222.96875 C 336.96352 224.16975 337.21873 226.0459 337.21875 228.59375 L 337.21875 231.1875 L 329 231.1875 L 329 226.4375 C 328.99999 225.05696 328.90103 224.21175 328.71875 223.875 C 328.54947 223.52708 328.16145 223.34377 327.5625 223.34375 C 326.88541 223.34377 326.46353 223.55348 326.28125 223.96875 C 326.09895 224.38406 325.99999 225.27571 326 226.65625 L 326 239.3125 C 325.99999 240.63695 326.09895 241.50219 326.28125 241.90625 C 326.46353 242.31032 326.86197 242.53125 327.5 242.53125 C 328.11197 242.53125 328.5052 242.31032 328.6875 241.90625 C 328.8828 241.50219 328.99999 240.55531 329 239.0625 L 329 235.65625 L 337.21875 235.65625 L 337.21875 236.71875 C 337.21873 239.53601 336.96873 241.54022 336.5 242.71875 C 336.04425 243.89728 335.02602 244.9258 333.4375 245.8125 C 333.32258 245.87718 333.21262 245.94004 333.09375 246 L 340.1875 246 L 340.1875 220 L 333.46875 220 z M 348.40625 220 L 348.40625 241.09375 L 353.40625 241.09375 L 353.40625 246 L 354.65625 246 L 358.65625 220 L 348.40625 220 z M 370.78125 220 L 375.25 246 L 379.96875 246 C 378.49344 245.29132 377.53045 244.39182 377.0625 243.3125 C 376.58073 242.20132 376.34375 240.63654 376.34375 238.59375 L 376.34375 236.8125 L 383.96875 236.8125 L 383.96875 240.125 C 383.96874 241.1464 384.07291 241.80193 384.28125 242.09375 C 384.50259 242.38558 384.89062 242.53125 385.4375 242.53125 C 385.98436 242.53125 386.39582 242.33915 386.65625 241.96875 C 386.92968 241.59836 387.06249 241.04207 387.0625 240.3125 C 387.06249 238.70746 386.78905 237.65012 386.28125 237.15625 C 385.76041 236.6624 384.48176 235.84359 382.4375 234.6875 C 380.39322 233.52021 379.03906 232.6838 378.375 232.15625 C 377.71093 231.62873 377.16146 230.90037 376.71875 229.96875 C 376.28906 229.03717 376.0625 227.85418 376.0625 226.40625 C 376.0625 224.31859 376.38802 222.7778 377 221.8125 C 377.46875 221.08856 378.13769 220.48405 379.03125 220 L 370.78125 220 z M 391.28125 220 C 392.32761 220.5267 393.05148 221.14658 393.4375 221.875 C 393.93227 222.77295 394.18748 224.30252 394.1875 226.46875 L 394.1875 227.5625 L 386.53125 227.5625 L 386.53125 225.53125 C 386.53124 224.58845 386.4453 223.97693 386.25 223.71875 C 386.05468 223.46062 385.73697 223.34377 385.28125 223.34375 C 384.78645 223.34377 384.41666 223.52708 384.15625 223.875 C 383.90885 224.22297 383.78124 224.7304 383.78125 225.4375 C 383.78124 226.34667 383.90103 227.03983 384.1875 227.5 C 384.46093 227.96021 385.2552 228.50527 386.53125 229.15625 C 390.19009 231.03069 392.48696 232.58029 393.4375 233.78125 C 394.388 234.98224 394.87498 236.92242 394.875 239.59375 C 394.87498 241.53552 394.59633 242.95463 394.0625 243.875 C 393.59722 244.69718 392.72369 245.4107 391.46875 246 L 400.6875 246 C 399.21219 245.29132 398.21795 244.39182 397.75 243.3125 C 397.26823 242.20132 397.03125 240.63654 397.03125 238.59375 L 397.03125 236.8125 L 404.65625 236.8125 L 404.65625 240.125 C 404.65624 241.1464 404.76041 241.80193 404.96875 242.09375 C 405.19009 242.38558 405.57812 242.53125 406.125 242.53125 C 406.67186 242.53125 407.08332 242.33915 407.34375 241.96875 C 407.61718 241.59836 407.74999 241.04207 407.75 240.3125 C 407.74999 238.70746 407.5078 237.65012 407 237.15625 C 406.47916 236.6624 405.20051 235.84359 403.15625 234.6875 C 401.11197 233.52021 399.75781 232.6838 399.09375 232.15625 C 398.42968 231.62873 397.88021 230.90037 397.4375 229.96875 C 397.00781 229.03717 396.78125 227.85418 396.78125 226.40625 C 396.78125 224.31859 397.07552 222.7778 397.6875 221.8125 C 398.15625 221.08856 398.85644 220.48405 399.75 220 L 391.28125 220 z M 411.96875 220 C 413.01784 220.52722 413.76961 221.14542 414.15625 221.875 C 414.65102 222.77295 414.87498 224.30252 414.875 226.46875 L 414.875 227.5625 L 407.25 227.5625 L 407.25 225.53125 C 407.24999 224.58845 407.16405 223.97693 406.96875 223.71875 C 406.77343 223.46062 406.42447 223.34377 405.96875 223.34375 C 405.47395 223.34377 405.10416 223.52708 404.84375 223.875 C 404.59635 224.22297 404.46874 224.7304 404.46875 225.4375 C 404.46874 226.34667 404.61978 227.03983 404.90625 227.5 C 405.17968 227.96021 405.9427 228.50527 407.21875 229.15625 C 410.87759 231.03069 413.20571 232.58029 414.15625 233.78125 C 415.10675 234.98224 415.56248 236.92242 415.5625 239.59375 C 415.56248 241.53552 415.31508 242.95463 414.78125 243.875 C 414.31597 244.69718 413.41119 245.4107 412.15625 246 L 418.15625 246 L 418.15625 220 L 411.96875 220 z M 426.375 220 L 426.375 246 L 433.375 246 C 431.8125 245.24799 430.75781 244.2307 430.25 242.90625 C 429.74219 241.57059 429.5 239.54634 429.5 236.875 L 429.5 228.90625 C 429.5 226.94205 429.5625 225.47652 429.71875 224.5 C 429.875 223.5123 430.35677 222.56543 431.125 221.65625 C 431.68389 221.00588 432.39124 220.44935 433.25 220 L 426.375 220 z M 445.1875 220 C 446.70367 220.79885 447.70384 221.7839 448.1875 222.96875 C 448.68227 224.16975 448.93748 226.0459 448.9375 228.59375 L 448.9375 231.1875 L 440.71875 231.1875 L 440.71875 226.4375 C 440.71874 225.05696 440.61978 224.21175 440.4375 223.875 C 440.26822 223.52708 439.8802 223.34377 439.28125 223.34375 C 438.60416 223.34377 438.18228 223.55348 438 223.96875 C 437.8177 224.38406 437.71874 225.27571 437.71875 226.65625 L 437.71875 239.3125 C 437.71874 240.63695 437.8177 241.50219 438 241.90625 C 438.18228 242.31032 438.58072 242.53125 439.21875 242.53125 C 439.83072 242.53125 440.22395 242.31032 440.40625 241.90625 C 440.60155 241.50219 440.71874 240.55531 440.71875 239.0625 L 440.71875 235.65625 L 448.9375 235.65625 L 448.9375 236.71875 C 448.93748 239.53601 448.68748 241.54022 448.21875 242.71875 C 447.763 243.89728 446.74477 244.9258 445.15625 245.8125 C 445.04133 245.87718 444.93137 245.94004 444.8125 246 L 480 246 L 480 220 L 445.1875 220 z M 365.03125 225.40625 C 364.19791 230.61425 363.67707 234.43058 363.46875 236.84375 L 366.28125 236.84375 C 365.86457 233.75714 365.44791 229.9408 365.03125 225.40625 z M 363.5625 241.65625 L 363.15625 246 L 366.90625 246 L 366.53125 241.65625 L 363.5625 241.65625 z "
         style="color:#000000;fill:#ffffff;fill-opacity:1;fill-rule:nonzero;stroke:none;stroke-width:1px;marker:none;visibility:visible;display:inline;overflow:visible;enable-background:accumulate" />
      <path
         id="rect2986-0"
         d="M 0 246 L 0 272 L 322.59375 272 L 322.59375 251.03125 L 317.75 251.03125 L 317.75 246 L 0 246 z M 335.71875 246 L 335.71875 251.03125 L 330.8125 251.03125 L 330.8125 272 L 337.59375 272 L 337.59375 246 L 335.71875 246 z M 345.8125 246 L 345.8125 272 L 349.15625 272 L 349.15625 246 L 345.8125 246 z M 359.875 246 C 360.1652 247.56103 360.45801 249.31711 360.78125 251.375 L 361.90625 258.375 L 363.71875 246 L 359.875 246 z M 374.53125 246 L 374.53125 272 L 377.8125 272 L 377.8125 246 L 374.53125 246 z M 391.53125 246 L 391.53125 251.03125 L 386.03125 251.03125 L 386.03125 256.25 L 391.1875 256.25 L 391.1875 261.46875 L 386.03125 261.46875 L 386.03125 267.5 L 392.0625 267.5 L 392.0625 272 L 480 272 L 480 246 L 391.53125 246 z M 367.34375 254.46875 L 364.625 272 L 367.34375 272 L 367.34375 254.46875 z M 356.34375 254.875 L 356.34375 272 L 359.21875 272 L 356.34375 254.875 z "
         style="color:#000000;fill:#ffffff;fill-opacity:1;fill-rule:nonzero;stroke:none;stroke-width:1px;marker:none;visibility:visible;display:inline;overflow:visible;enable-background:accumulate" />
    </g>
  </g>
</svg>
